<svg id="Layer_1" enable-background="new 0 0 512 512" height="300" viewBox="0 0 512 512" width="300" xmlns="http://www.w3.org/2000/svg" version="1.1" xmlns:xlink="http://www.w3.org/1999/xlink" xmlns:svgjs="http://svgjs.dev/svgjs"><g width="100%" height="100%" transform="matrix(1,0,0,1,0,0)"><path d="m411.4429 0h-310.9141c-55.4316 0-100.5288 45.1094-100.5288 100.5566v310.9141c0 55.4316 45.0972 100.5293 100.5288 100.5293h310.9141c55.4472 0 100.5571-45.0977 100.5571-100.5293v-310.9141c0-55.4472-45.1099-100.5566-100.5571-100.5566zm76.5571 411.4707c0 42.1982-34.3433 76.5293-76.5571 76.5293h-310.9141c-42.1982 0-76.5288-34.3311-76.5288-76.5293v-310.9141c0-42.2138 34.3306-76.5566 76.5288-76.5566h310.9141c42.2138 0 76.5571 34.3428 76.5571 76.5566zm-123.3413-217.2915 61.8374 61.8369-61.8398 61.8066-16.9658-16.9746 32.8518-32.834h-173.0506v-24h173.061l-32.8647-32.8643zm-59.1509 115.1562h24v88.3877c0 14.4941-11.8052 26.2861-26.3154 26.2861h-191.373c-14.5103 0-26.3154-11.792-26.3154-26.2861v-283.417c0-14.5107 11.8052-26.3154 26.3154-26.3154h191.373c14.5103 0 26.3154 11.8047 26.3154 26.3154v88.3584h-24v-88.3584c0-1.2334-1.082-2.3154-2.3154-2.3154h-191.373c-1.2549 0-2.3154 1.0605-2.3154 2.3154v283.417c0 1.2393 1.0605 2.2861 2.3154 2.2861h191.373c1.2334 0 2.3154-1.0684 2.3154-2.2861z" fill="#000000" fill-opacity="1" data-original-color="#000000ff" stroke="none" stroke-opacity="1"/></g></svg>